<svg width="129" height="77" viewBox="0 0 129 77" fill="none" xmlns="http://www.w3.org/2000/svg">
<path d="M7.5 25.5V69.5C7.5 72.2614 9.73858 74.5 12.5 74.5H28.5C46.1731 74.5 60.5 60.1731 60.5 42.5V35C60.5 17.3269 46.1731 3 28.5 3H4.85576C3.07011 3 2.17953 5.16223 3.4472 6.41984L55.2834 57.8447C59.56 62.0873 66.4535 62.1009 70.7468 57.8752L123.02 6.42539C124.295 5.17013 123.406 3 121.617 3H75.5C72.7386 3 70.5 5.23858 70.5 8V69.5C70.5 72.2614 72.7386 74.5 75.5 74.5H123.988C125.638 74.5 126.578 72.6139 125.585 71.2961L103.5 42" stroke="black" stroke-width="4.5" stroke-linecap="round" stroke-linejoin="round"/>
</svg>
